<svg width="28" height="28" viewBox="0 0 28 28" fill="none" xmlns="http://www.w3.org/2000/svg">
<rect width="28" height="28" fill="#E5E5E5"/>
<g id="Doctors List" clip-path="url(#clip0_497_4538)">
<rect width="1920" height="1439" transform="translate(-30 -30)" fill="white"/>
<g id="Menu">
<mask id="path-1-inside-1_497_4538" fill="white">
<path d="M-30 -30H320V1409H-30V-30Z"/>
</mask>
<path d="M-30 -30H320V1409H-30V-30Z" fill="white"/>
<path d="M319 -30V1409H321V-30H319Z" fill="#EEEEEE" mask="url(#path-1-inside-1_497_4538)"/>
<g id="Pages">
<g id="Page">
<mask id="path-3-inside-2_497_4538" fill="white">
<path d="M-30 -30H320V58H-30V-30Z"/>
</mask>
<path d="M-30 -30H320V58H-30V-30Z" fill="white"/>
<path d="M320 57H-30V59H320V57Z" fill="#EEEEEE" mask="url(#path-3-inside-2_497_4538)"/>
<g id="fluent:news-16-regular">
<path id="Vector" d="M6.125 8.75C5.89294 8.75 5.67038 8.84219 5.50628 9.00628C5.34219 9.17038 5.25 9.39294 5.25 9.625C5.25 9.85706 5.34219 10.0796 5.50628 10.2437C5.67038 10.4078 5.89294 10.5 6.125 10.5H18.375C18.6071 10.5 18.8296 10.4078 18.9937 10.2437C19.1578 10.0796 19.25 9.85706 19.25 9.625C19.25 9.39294 19.1578 9.17038 18.9937 9.00628C18.8296 8.84219 18.6071 8.75 18.375 8.75H6.125ZM6.125 12.25C5.89294 12.25 5.67038 12.3422 5.50628 12.5063C5.34219 12.6704 5.25 12.8929 5.25 13.125V16.625C5.25 16.8571 5.34219 17.0796 5.50628 17.2437C5.67038 17.4078 5.89294 17.5 6.125 17.5H9.625C9.85706 17.5 10.0796 17.4078 10.2437 17.2437C10.4078 17.0796 10.5 16.8571 10.5 16.625V13.125C10.5 12.8929 10.4078 12.6704 10.2437 12.5063C10.0796 12.3422 9.85706 12.25 9.625 12.25H6.125ZM7 15.75V14H8.75V15.75H7ZM13.125 12.25C12.8929 12.25 12.6704 12.3422 12.5063 12.5063C12.3422 12.6704 12.25 12.8929 12.25 13.125C12.25 13.3571 12.3422 13.5796 12.5063 13.7437C12.6704 13.9078 12.8929 14 13.125 14H18.375C18.6071 14 18.8296 13.9078 18.9937 13.7437C19.1578 13.5796 19.25 13.3571 19.25 13.125C19.25 12.8929 19.1578 12.6704 18.9937 12.5063C18.8296 12.3422 18.6071 12.25 18.375 12.25H13.125ZM13.125 15.75C12.8929 15.75 12.6704 15.8422 12.5063 16.0063C12.3422 16.1704 12.25 16.3929 12.25 16.625C12.25 16.8571 12.3422 17.0796 12.5063 17.2437C12.6704 17.4078 12.8929 17.5 13.125 17.5H18.375C18.6071 17.5 18.8296 17.4078 18.9937 17.2437C19.1578 17.0796 19.25 16.8571 19.25 16.625C19.25 16.3929 19.1578 16.1704 18.9937 16.0063C18.8296 15.8422 18.6071 15.75 18.375 15.75H13.125ZM1.75 7C1.75 6.07174 2.11875 5.1815 2.77513 4.52513C3.4315 3.86875 4.32174 3.5 5.25 3.5H19.25C20.1783 3.5 21.0685 3.86875 21.7249 4.52513C22.3813 5.1815 22.75 6.07174 22.75 7C23.6783 7 24.5685 7.36875 25.2249 8.02513C25.8813 8.6815 26.25 9.57174 26.25 10.5V18.375C26.25 19.5353 25.7891 20.6481 24.9686 21.4686C24.1481 22.2891 23.0353 22.75 21.875 22.75H6.125C4.96468 22.75 3.85188 22.2891 3.03141 21.4686C2.21094 20.6481 1.75 19.5353 1.75 18.375V7ZM21.875 18.375C21.6429 18.375 21.4204 18.2828 21.2563 18.1187C21.0922 17.9546 21 17.7321 21 17.5V7C21 6.53587 20.8156 6.09075 20.4874 5.76256C20.1592 5.43437 19.7141 5.25 19.25 5.25H5.25C4.78587 5.25 4.34075 5.43437 4.01256 5.76256C3.68437 6.09075 3.5 6.53587 3.5 7V18.375C3.5 19.0712 3.77656 19.7389 4.26884 20.2312C4.76113 20.7234 5.42881 21 6.125 21H21.875C22.5712 21 23.2389 20.7234 23.7312 20.2312C24.2234 19.7389 24.5 19.0712 24.5 18.375V10.5C24.5 10.0359 24.3156 9.59075 23.9874 9.26256C23.6592 8.93437 23.2141 8.75 22.75 8.75V17.5C22.75 17.7321 22.6578 17.9546 22.4937 18.1187C22.3296 18.2828 22.1071 18.375 21.875 18.375Z" fill="black"/>
</g>
</g>
</g>
</g>
</g>
<defs>
<clipPath id="clip0_497_4538">
<rect width="1920" height="1439" fill="white" transform="translate(-30 -30)"/>
</clipPath>
</defs>
</svg>
