<svg width="28" height="28" viewBox="0 0 28 28" fill="none" xmlns="http://www.w3.org/2000/svg">
<path d="M10.5 17.4031V18.0833C10.5 19.4756 11.0531 20.811 12.0377 21.7956C13.0222 22.7801 14.3576 23.3333 15.75 23.3333C17.1424 23.3333 18.4777 22.7801 19.4623 21.7956C20.4469 20.811 21 19.4756 21 18.0833V16.1349C20.2212 15.8597 19.5649 15.318 19.1469 14.6056C18.7289 13.8933 18.5762 13.0561 18.7159 12.242C18.8555 11.4279 19.2784 10.6895 19.9099 10.1571C20.5413 9.62468 21.3407 9.33268 22.1666 9.33268C22.9926 9.33268 23.7919 9.62468 24.4234 10.1571C25.0549 10.6895 25.4778 11.4279 25.6174 12.242C25.757 13.0561 25.6044 13.8933 25.1864 14.6056C24.7684 15.318 24.1121 15.8597 23.3333 16.1349V18.0833C23.3333 20.0945 22.5344 22.0233 21.1122 23.4455C19.6901 24.8676 17.7612 25.6666 15.75 25.6666C13.7388 25.6666 11.8099 24.8676 10.3878 23.4455C8.9656 22.0233 8.16665 20.0945 8.16665 18.0833V17.4031C6.53536 17.1273 5.05446 16.2827 3.98663 15.0191C2.9188 13.7554 2.33306 12.1543 2.33331 10.4999V4.66659C2.33331 4.04775 2.57915 3.45425 3.01673 3.01667C3.45432 2.57908 4.04781 2.33325 4.66665 2.33325H5.83331C6.14273 2.33325 6.43948 2.45617 6.65827 2.67496C6.87706 2.89375 6.99998 3.1905 6.99998 3.49992C6.99998 3.80934 6.87706 4.10608 6.65827 4.32488C6.43948 4.54367 6.14273 4.66659 5.83331 4.66659H4.66665V10.4999C4.66665 11.7376 5.15831 12.9246 6.03348 13.7998C6.90865 14.6749 8.09564 15.1666 9.33331 15.1666C10.571 15.1666 11.758 14.6749 12.6331 13.7998C13.5083 12.9246 14 11.7376 14 10.4999V4.66659H12.8333C12.5239 4.66659 12.2271 4.54367 12.0084 4.32488C11.7896 4.10608 11.6666 3.80934 11.6666 3.49992C11.6666 3.1905 11.7896 2.89375 12.0084 2.67496C12.2271 2.45617 12.5239 2.33325 12.8333 2.33325H14C14.6188 2.33325 15.2123 2.57908 15.6499 3.01667C16.0875 3.45425 16.3333 4.04775 16.3333 4.66659V10.4999C16.3336 12.1543 15.7478 13.7554 14.68 15.0191C13.6122 16.2827 12.1313 17.1273 10.5 17.4031ZM22.1666 13.9999C22.4761 13.9999 22.7728 13.877 22.9916 13.6582C23.2104 13.4394 23.3333 13.1427 23.3333 12.8333C23.3333 12.5238 23.2104 12.2271 22.9916 12.0083C22.7728 11.7895 22.4761 11.6666 22.1666 11.6666C21.8572 11.6666 21.5605 11.7895 21.3417 12.0083C21.1229 12.2271 21 12.5238 21 12.8333C21 13.1427 21.1229 13.4394 21.3417 13.6582C21.5605 13.877 21.8572 13.9999 22.1666 13.9999Z" fill="#00863E"/>
</svg>
