<svg width="28" height="28" viewBox="0 0 28 28" fill="none" xmlns="http://www.w3.org/2000/svg">
<path d="M10.5 17.4031V18.0833C10.5 19.4757 11.0531 20.8111 12.0377 21.7956C13.0222 22.7802 14.3576 23.3333 15.75 23.3333C17.1424 23.3333 18.4777 22.7802 19.4623 21.7956C20.4469 20.8111 21 19.4757 21 18.0833V16.135C20.2212 15.8598 19.5649 15.3181 19.1469 14.6057C18.7289 13.8933 18.5762 13.0561 18.7159 12.2421C18.8555 11.428 19.2784 10.6895 19.9099 10.1571C20.5413 9.62474 21.3407 9.33274 22.1666 9.33274C22.9926 9.33274 23.7919 9.62474 24.4234 10.1571C25.0549 10.6895 25.4778 11.428 25.6174 12.2421C25.757 13.0561 25.6044 13.8933 25.1864 14.6057C24.7684 15.3181 24.1121 15.8598 23.3333 16.135V18.0833C23.3333 20.0945 22.5344 22.0234 21.1122 23.4455C19.6901 24.8677 17.7612 25.6666 15.75 25.6666C13.7388 25.6666 11.8099 24.8677 10.3878 23.4455C8.9656 22.0234 8.16665 20.0945 8.16665 18.0833V17.4031C6.53536 17.1274 5.05446 16.2828 3.98663 15.0191C2.9188 13.7555 2.33306 12.1544 2.33331 10.5V4.66665C2.33331 4.04781 2.57915 3.45432 3.01673 3.01673C3.45432 2.57915 4.04781 2.33331 4.66665 2.33331H5.83331C6.14273 2.33331 6.43948 2.45623 6.65827 2.67502C6.87706 2.89381 6.99998 3.19056 6.99998 3.49998C6.99998 3.8094 6.87706 4.10615 6.65827 4.32494C6.43948 4.54373 6.14273 4.66665 5.83331 4.66665H4.66665V10.5C4.66665 11.7377 5.15831 12.9246 6.03348 13.7998C6.90865 14.675 8.09564 15.1666 9.33331 15.1666C10.571 15.1666 11.758 14.675 12.6331 13.7998C13.5083 12.9246 14 11.7377 14 10.5V4.66665H12.8333C12.5239 4.66665 12.2271 4.54373 12.0084 4.32494C11.7896 4.10615 11.6666 3.8094 11.6666 3.49998C11.6666 3.19056 11.7896 2.89381 12.0084 2.67502C12.2271 2.45623 12.5239 2.33331 12.8333 2.33331H14C14.6188 2.33331 15.2123 2.57915 15.6499 3.01673C16.0875 3.45432 16.3333 4.04781 16.3333 4.66665V10.5C16.3336 12.1544 15.7478 13.7555 14.68 15.0191C13.6122 16.2828 12.1313 17.1274 10.5 17.4031ZM22.1666 14C22.4761 14 22.7728 13.8771 22.9916 13.6583C23.2104 13.4395 23.3333 13.1427 23.3333 12.8333C23.3333 12.5239 23.2104 12.2271 22.9916 12.0084C22.7728 11.7896 22.4761 11.6666 22.1666 11.6666C21.8572 11.6666 21.5605 11.7896 21.3417 12.0084C21.1229 12.2271 21 12.5239 21 12.8333C21 13.1427 21.1229 13.4395 21.3417 13.6583C21.5605 13.8771 21.8572 14 22.1666 14Z" fill="black"/>
</svg>
